<?xml version="1.0" encoding="UTF-8" standalone="no"?>
<!DOCTYPE svg PUBLIC "-//W3C//DTD SVG 1.1//EN" "http://www.w3.org/Graphics/SVG/1.1/DTD/svg11.dtd">
<!-- Created with Vectornator (http://vectornator.io/) -->
<svg height="100%" stroke-miterlimit="10" style="fill-rule:nonzero;clip-rule:evenodd;stroke-linecap:round;stroke-linejoin:round;" version="1.1" viewBox="0 0 20 20" width="100%" xml:space="preserve" xmlns="http://www.w3.org/2000/svg" xmlns:vectornator="http://vectornator.io" xmlns:xlink="http://www.w3.org/1999/xlink">
<defs/>
<g id="Layer-2" vectornator:layerName="Layer 2">
<path d="M0 0L20 0L20 20L0 20L0 0Z" fill="#000000" fill-rule="nonzero" opacity="1" stroke="none"/>
<path d="M1 10C1 5.02944 5.02944 1 10 1C14.9706 1 19 5.02944 19 10C19 14.9706 14.9706 19 10 19C5.02944 19 1 14.9706 1 10Z" fill="none" opacity="0" stroke="#ffffff" stroke-linecap="butt" stroke-linejoin="miter" stroke-width="1"/>
</g>
<g id="Layer-1" vectornator:layerName="Layer 1">
<path d="M1 1L19 1L19 19L1 19L1 1Z" fill="#000000" fill-rule="nonzero" opacity="0" stroke="none"/>
<path d="M1.9 9.99915C1.9 5.52599 5.52649 1.89978 10 1.89978C14.4735 1.89978 18.1 5.52599 18.1 9.99915C18.1 14.4723 14.4735 18.0985 10 18.0985C5.52649 18.0985 1.9 14.4723 1.9 9.99915Z" fill="none" opacity="0" stroke="#ffffff" stroke-linecap="butt" stroke-linejoin="round" stroke-width="2"/>
<path d="M5.37883 3.52244C5.81706 4.00437 6.40866 4.31105 7.15364 4.44248C7.52613 4.5082 7.89862 4.57392 8.2711 4.63963C8.22728 4.8806 8.18346 5.12156 8.13964 5.36252C8.05199 5.84445 7.46039 5.99779 6.36484 5.82254C5.81706 5.73492 5.26928 5.64729 4.7215 5.55967C4.9187 5.75682 5.1159 5.95397 5.3131 6.15113C5.7075 6.54543 5.88279 7.11498 5.83897 7.85977C5.79515 8.60456 5.81706 9.04268 5.9047 9.17411C5.99235 9.30555 6.38675 9.69985 7.0879 10.357C7.78906 11.0142 8.44639 11.3647 9.05991 11.4085C9.67342 11.4523 10.1336 11.4085 10.4403 11.2771C10.7471 11.1456 10.9662 10.9266 11.0976 10.6199C11.2291 10.3132 11.3168 9.72176 11.3606 8.84553C11.4044 7.9693 11.6235 7.48737 12.0179 7.39975C12.4123 7.31213 12.6095 7.22451 12.6095 7.13688C12.6095 7.04926 12.4123 6.8083 12.0179 6.41399C11.6235 6.01969 11.0976 5.86635 10.4403 5.95397C10.1116 5.99779 9.78297 6.0416 9.45431 6.08541C9.47622 5.86635 9.49813 5.64729 9.52004 5.42824C9.56386 4.99012 9.87062 4.77107 10.4403 4.77107C11.01 4.77107 11.5359 4.70535 12.0179 4.57392C12.5 4.44248 12.7848 4.31105 12.8724 4.17961C12.9601 4.04818 12.8067 3.78531 12.4123 3.39101C12.0179 2.9967 11.514 2.88718 10.9004 3.06242C10.2869 3.23767 9.41048 3.32529 8.2711 3.32529C7.13173 3.32529 6.25528 3.23767 5.64177 3.06242C5.33501 2.9748 5.02826 2.88718 4.7215 2.79955C4.94061 3.04052 5.15972 3.28148 5.37883 3.52244Z" fill="#ffffff" fill-rule="nonzero" opacity="1" stroke="none"/>
<path d="M7.21937 7.39975C7.6795 7.39975 8.13964 7.39975 8.59977 7.39975C9.05991 7.39975 9.52004 7.39975 9.98017 7.39975C9.93635 7.75024 9.89253 8.10073 9.84871 8.45122C9.76106 9.15221 9.62959 9.59032 9.45431 9.76557C9.27902 9.94081 9.01608 10.0503 8.6655 10.0942C8.31493 10.138 7.98626 10.0503 7.6795 9.83128C7.37275 9.61223 7.21937 9.15221 7.21937 8.45122C7.21937 8.10073 7.21937 7.75024 7.21937 7.39975Z" fill="#000000" fill-rule="nonzero" opacity="1" stroke="none"/>
<path d="M13.7927 11.6714C13.5298 14.2562 13.2011 15.6582 12.8067 15.8773C12.4123 16.0963 12.0617 16.1839 11.755 16.1401C11.4482 16.0963 11.2291 16.0087 11.0976 15.8773C10.9662 15.7458 10.8785 15.5049 10.8347 15.1544C10.8128 14.9791 10.7909 14.8039 10.769 14.6286C10.9443 14.7601 11.1196 14.8915 11.2948 15.0229C11.6454 15.2858 11.9522 15.4172 12.2151 15.4172C12.478 15.4172 12.6972 15.3296 12.8724 15.1544C13.0477 14.9791 13.1354 14.6943 13.1354 14.3C13.1354 13.9057 12.8724 13.4457 12.3466 12.92C11.8207 12.3943 11.3825 12.1095 11.0319 12.0657C10.6813 12.0219 10.3308 12.1971 9.98017 12.5914C9.62959 12.9857 9.45431 13.4238 9.45431 13.9057C9.45431 14.3877 9.52004 14.7601 9.65151 15.0229C9.78297 15.2858 10.2431 15.7239 11.0319 16.3373C11.8207 16.9506 12.5438 17.2354 13.2011 17.1916C13.8584 17.1478 14.2748 17.0602 14.45 16.9287C14.6253 16.7973 14.7349 16.644 14.7787 16.4687C14.8225 16.2935 14.954 15.001 15.1731 12.5914C15.3922 10.1818 15.2827 8.77981 14.8444 8.38551C14.6253 8.18836 14.4062 7.9912 14.1871 7.79405C14.0556 9.08649 13.9242 10.3789 13.7927 11.6714Z" fill="#ffffff" fill-rule="nonzero" opacity="1" stroke="none"/>
<path d="M11.6892 13.3143C11.6673 13.4676 11.6454 13.621 11.6235 13.7743C11.5797 14.081 11.4482 14.2781 11.2291 14.3658C11.1196 14.4096 11.01 14.4534 10.9004 14.4972C10.9443 14.3658 10.9881 14.2343 11.0319 14.1029C11.1196 13.84 11.251 13.6429 11.4263 13.5114C11.514 13.4457 11.6016 13.38 11.6892 13.3143Z" fill="#000000" fill-rule="nonzero" opacity="1" stroke="none"/>
</g>
</svg>
