<?xml version="1.0" encoding="UTF-8" standalone="no"?>
<!DOCTYPE svg PUBLIC "-//W3C//DTD SVG 1.1//EN" "http://www.w3.org/Graphics/SVG/1.1/DTD/svg11.dtd">
<!-- Created with Vectornator (http://vectornator.io/) -->
<svg height="100%" stroke-miterlimit="10" style="fill-rule:nonzero;clip-rule:evenodd;stroke-linecap:round;stroke-linejoin:round;" version="1.1" viewBox="0 0 1660 424.2" width="100%" xml:space="preserve" xmlns="http://www.w3.org/2000/svg" xmlns:vectornator="http://vectornator.io" xmlns:xlink="http://www.w3.org/1999/xlink">
<defs/>
<clipPath id="ArtboardFrame">
<rect height="424.2" width="1660" x="0" y="0"/>
</clipPath>
<g clip-path="url(#ArtboardFrame)" id="Layer-1" vectornator:layerName="Layer 1">
<path d="M1594.39 226.382C1591.71 229.437 1590.38 232.301 1590.38 234.975C1590.38 237.648 1593.43 242.803 1599.54 250.441C1602.6 254.259 1605.65 258.078 1608.71 261.897C1607.75 261.515 1606.8 261.133 1605.84 260.751C1604.89 260.369 1603.93 259.987 1602.98 259.606C1602.98 260.178 1602.98 260.751 1602.98 261.324C1602.98 262.47 1602.21 263.233 1600.69 263.615C1599.16 263.997 1593.43 264.188 1583.5 264.188C1573.57 264.188 1565.94 263.424 1560.59 261.897C1557.92 261.133 1555.24 260.369 1552.57 259.606C1555.24 262.088 1557.92 264.57 1560.59 267.052C1565.94 272.017 1574.34 275.072 1585.79 276.217C1597.25 277.363 1602.98 283.282 1602.98 293.974C1602.98 299.321 1602.98 304.667 1602.98 310.013C1600.3 307.913 1597.63 305.813 1594.96 303.712C1589.61 299.512 1584.46 297.22 1579.49 296.839C1574.53 296.457 1570.52 297.029 1567.46 298.557C1564.41 300.085 1561.54 302.758 1558.87 306.576C1556.2 310.395 1554.67 318.033 1554.29 329.489C1553.91 340.945 1555.43 348.392 1558.87 351.829C1560.59 353.547 1562.31 355.266 1564.03 356.984C1564.41 351.829 1564.79 346.673 1565.17 341.518C1565.94 331.207 1567.08 324.525 1568.61 321.47C1570.14 318.415 1572.24 315.741 1574.91 313.45C1577.58 311.159 1580.45 309.822 1583.5 309.44C1586.56 309.059 1589.42 309.44 1592.09 310.586C1594.77 311.732 1599.16 315.932 1605.27 323.188C1608.32 326.816 1611.38 330.444 1614.43 334.071C1614.43 324.334 1614.43 314.596 1614.43 304.858C1614.43 285.382 1616.34 275.263 1620.16 274.499C1623.98 273.735 1626.65 271.253 1628.18 267.052C1629.71 262.852 1631.81 260.178 1634.48 259.033C1637.16 257.887 1639.26 256.169 1640.78 253.877C1642.31 251.586 1643.07 249.677 1643.07 248.149C1643.07 246.622 1641.17 244.14 1637.35 240.703C1635.44 238.984 1633.53 237.266 1631.62 235.547C1631.05 236.693 1630.47 237.839 1629.9 238.984C1629.33 240.13 1628.75 241.276 1628.18 242.421C1627.99 241.657 1627.8 240.894 1627.61 240.13C1627.23 238.602 1624.55 235.356 1619.59 230.392C1614.62 225.428 1609.85 222.755 1605.27 222.373C1600.69 221.991 1597.06 223.327 1594.39 226.382ZM1615.01 233.256C1616.92 233.256 1618.25 234.211 1619.02 236.12C1619.78 238.03 1619.97 240.13 1619.59 242.421C1619.21 244.712 1618.25 246.622 1616.73 248.149C1615.2 249.677 1612.72 250.441 1609.28 250.441C1607.56 250.441 1605.84 250.441 1604.12 250.441C1604.12 248.722 1604.12 247.004 1604.12 245.285C1604.12 241.848 1605.46 238.984 1608.13 236.693C1610.81 234.402 1613.1 233.256 1615.01 233.256ZM1201.43 244.712C1199.53 247.004 1198.57 249.486 1198.57 252.159C1198.57 254.832 1200.48 258.842 1204.3 264.188C1208.12 269.534 1210.79 272.589 1212.32 273.353C1213.85 274.117 1214.61 275.644 1214.61 277.936C1214.61 280.227 1216.52 283.282 1220.34 287.101C1222.25 289.01 1224.16 290.919 1226.07 292.829C1226.07 290.156 1226.07 287.483 1226.07 284.809C1226.07 282.136 1226.07 279.463 1226.07 276.79C1227.59 276.79 1229.12 276.79 1230.65 276.79C1233.7 276.79 1236.38 276.217 1238.67 275.072C1240.96 273.926 1242.1 272.971 1242.1 272.208C1242.1 271.444 1240.39 269.153 1236.95 265.334C1233.51 261.515 1231.03 259.987 1229.5 260.751C1228.74 261.133 1227.98 261.515 1227.21 261.897C1227.21 260.942 1227.21 259.987 1227.21 259.033C1227.21 257.123 1224.92 253.687 1220.34 248.722C1215.76 243.758 1211.94 241.276 1208.88 241.276C1205.83 241.276 1203.34 242.421 1201.43 244.712ZM1213.46 253.877C1213.85 255.405 1214.23 256.932 1214.61 258.46C1214.99 259.987 1215.37 261.515 1215.76 263.043C1214.8 262.47 1213.85 261.897 1212.89 261.324C1210.98 260.178 1210.03 258.842 1210.03 257.314C1210.03 255.787 1210.6 254.832 1211.75 254.45C1212.32 254.259 1212.89 254.068 1213.46 253.877ZM1476.96 260.178C1476.96 262.852 1474.86 264.379 1470.66 264.761C1466.46 265.143 1461.11 265.143 1454.62 264.761C1448.13 264.379 1442.4 263.424 1437.43 261.897C1434.95 261.133 1432.47 260.369 1429.99 259.606C1432.28 261.897 1434.57 264.188 1436.86 266.479C1441.44 271.062 1445.64 273.926 1449.46 275.072C1453.28 276.217 1458.82 276.79 1466.08 276.79C1473.33 276.79 1477.72 281.373 1479.25 290.538C1480.78 299.703 1481.54 305.431 1481.54 307.722C1481.54 308.868 1481.54 310.013 1481.54 311.159C1479.44 310.395 1477.34 309.631 1475.24 308.868C1471.04 307.34 1465.88 306.576 1459.77 306.576C1453.66 306.576 1449.46 307.149 1447.17 308.295C1446.03 308.868 1444.88 309.44 1443.74 310.013C1444.12 306.958 1444.5 303.903 1444.88 300.848C1445.64 294.738 1444.12 289.965 1440.3 286.528C1438.39 284.809 1436.48 283.091 1434.57 281.373C1434.19 288.628 1433.81 295.884 1433.42 303.14C1432.66 317.651 1434.38 326.434 1438.58 329.489C1442.78 332.544 1446.6 331.971 1450.04 327.771C1453.47 323.57 1458.44 320.897 1464.93 319.751C1471.42 318.606 1476.19 318.796 1479.25 320.324C1482.3 321.851 1486.12 324.716 1490.71 328.916C1493 331.016 1495.29 333.117 1497.58 335.217C1497.58 332.544 1497.58 329.871 1497.58 327.198C1497.58 324.525 1497.58 321.851 1497.58 319.178C1497.77 319.942 1497.96 320.706 1498.15 321.47C1498.53 322.997 1500.83 325.67 1505.03 329.489C1509.23 333.308 1514.57 335.217 1521.07 335.217C1527.56 335.217 1532.33 333.117 1535.39 328.916C1538.44 324.716 1541.11 314.023 1543.4 296.839C1545.7 279.654 1544.74 269.153 1540.54 265.334C1538.44 263.424 1536.34 261.515 1534.24 259.606C1533.29 268.007 1532.33 276.408 1531.38 284.809C1529.47 301.612 1526.79 312.305 1523.36 316.887C1519.92 321.47 1516.48 323.761 1513.05 323.761C1509.61 323.761 1507.13 322.042 1505.6 318.606C1504.07 315.169 1501.97 312.495 1499.3 310.586C1496.63 308.677 1494.72 303.712 1493.57 295.693C1492.42 287.674 1491.85 282.327 1491.85 279.654C1491.85 276.981 1493.76 275.263 1497.58 274.499C1501.4 273.735 1503.69 272.78 1504.45 271.635C1505.22 270.489 1503.88 268.198 1500.44 264.761C1497.01 261.324 1493.19 260.178 1488.99 261.324C1484.79 262.47 1481.73 261.897 1479.82 259.606C1478.87 258.46 1477.91 257.314 1476.96 256.169C1476.96 257.505 1476.96 258.842 1476.96 260.178ZM1026.73 265.907C1030.55 270.107 1035.7 272.78 1042.19 273.926C1045.44 274.499 1048.68 275.072 1051.93 275.644C1051.55 277.745 1051.17 279.845 1050.78 281.945C1050.02 286.146 1044.87 287.483 1035.32 285.955C1030.55 285.191 1025.77 284.428 1021 283.664C1022.72 285.382 1024.44 287.101 1026.15 288.819C1029.59 292.256 1031.12 297.22 1030.74 303.712C1030.35 310.204 1030.55 314.023 1031.31 315.169C1032.07 316.314 1035.51 319.751 1041.62 325.479C1047.73 331.207 1053.46 334.262 1058.8 334.644C1064.15 335.026 1068.16 334.644 1070.83 333.499C1073.51 332.353 1075.42 330.444 1076.56 327.771C1077.71 325.097 1078.47 319.942 1078.85 312.305C1079.23 304.667 1081.14 300.466 1084.58 299.703C1088.02 298.939 1089.74 298.175 1089.74 297.411C1089.74 296.648 1088.02 294.547 1084.58 291.11C1081.14 287.674 1076.56 286.337 1070.83 287.101C1067.97 287.483 1065.1 287.864 1062.24 288.246C1062.43 286.337 1062.62 284.428 1062.81 282.518C1063.2 278.699 1065.87 276.79 1070.83 276.79C1075.8 276.79 1080.38 276.217 1084.58 275.072C1088.78 273.926 1091.26 272.78 1092.03 271.635C1092.79 270.489 1091.45 268.198 1088.02 264.761C1084.58 261.324 1080.19 260.369 1074.84 261.897C1069.5 263.424 1061.86 264.188 1051.93 264.188C1042 264.188 1034.36 263.424 1029.02 261.897C1026.34 261.133 1023.67 260.369 1021 259.606C1022.91 261.706 1024.82 263.806 1026.73 265.907ZM1110.36 267.052C1115.7 272.017 1124.1 275.072 1135.56 276.217C1147.02 277.363 1152.75 283.282 1152.75 293.974C1152.75 299.321 1152.75 304.667 1152.75 310.013C1150.07 307.913 1147.4 305.813 1144.73 303.712C1139.38 299.512 1134.22 297.22 1129.26 296.839C1124.3 296.457 1120.29 297.029 1117.23 298.557C1114.18 300.085 1111.31 302.758 1108.64 306.576C1105.97 310.395 1104.44 318.033 1104.06 329.489C1103.67 340.945 1105.39 348.392 1109.21 351.829C1111.12 353.547 1113.03 355.266 1114.94 356.984C1115.13 351.829 1115.32 346.673 1115.51 341.518C1115.89 331.207 1116.85 324.525 1118.38 321.47C1119.9 318.415 1122 315.741 1124.68 313.45C1127.35 311.159 1130.21 309.822 1133.27 309.44C1136.32 309.059 1139.19 309.44 1141.86 310.586C1144.54 311.732 1148.93 315.932 1155.04 323.188C1158.09 326.816 1161.15 330.444 1164.2 334.071C1164.2 324.334 1164.2 314.596 1164.2 304.858C1164.2 285.382 1165.73 275.263 1168.78 274.499C1171.84 273.735 1173.75 272.78 1174.51 271.635C1175.28 270.489 1173.94 268.198 1170.5 264.761C1167.07 261.324 1164.2 259.987 1161.91 260.751C1159.62 261.515 1157.52 261.515 1155.61 260.751C1154.65 260.369 1153.7 259.987 1152.75 259.606C1152.75 260.178 1152.75 260.751 1152.75 261.324C1152.75 262.47 1151.98 263.233 1150.45 263.615C1148.93 263.997 1143.2 264.188 1133.27 264.188C1123.34 264.188 1115.7 263.424 1110.36 261.897C1107.68 261.133 1105.01 260.369 1102.34 259.606C1105.01 262.088 1107.68 264.57 1110.36 267.052ZM1275.33 267.052C1280.67 272.017 1289.08 275.072 1300.53 276.217C1311.99 277.363 1317.72 283.282 1317.72 293.974C1317.72 299.321 1317.72 304.667 1317.72 310.013C1315.04 307.913 1312.37 305.813 1309.7 303.712C1304.35 299.512 1299.2 297.22 1294.23 296.839C1289.27 296.457 1285.26 297.029 1282.2 298.557C1279.15 300.085 1276.28 302.758 1273.61 306.576C1270.94 310.395 1269.41 318.033 1269.03 329.489C1268.64 340.945 1270.36 348.392 1274.18 351.829C1276.09 353.547 1278 355.266 1279.91 356.984C1280.1 351.829 1280.29 346.673 1280.48 341.518C1280.87 331.207 1281.82 324.525 1283.35 321.47C1284.87 318.415 1286.98 315.741 1289.65 313.45C1292.32 311.159 1295.19 309.822 1298.24 309.44C1301.3 309.059 1304.16 309.44 1306.83 310.586C1309.51 311.732 1313.9 315.932 1320.01 323.188C1323.06 326.816 1326.12 330.444 1329.17 334.071C1329.17 324.334 1329.17 314.596 1329.17 304.858C1329.17 285.382 1330.7 275.263 1333.75 274.499C1336.81 273.735 1338.72 272.78 1339.48 271.635C1340.25 270.489 1338.91 268.198 1335.47 264.761C1332.04 261.324 1329.17 259.987 1326.88 260.751C1324.59 261.515 1322.49 261.515 1320.58 260.751C1319.63 260.369 1318.67 259.987 1317.72 259.606C1317.72 260.178 1317.72 260.751 1317.72 261.324C1317.72 262.47 1316.95 263.233 1315.42 263.615C1313.9 263.997 1308.17 264.188 1298.24 264.188C1288.31 264.188 1280.67 263.424 1275.33 261.897C1272.65 261.133 1269.98 260.369 1267.31 259.606C1269.98 262.088 1272.65 264.57 1275.33 267.052ZM1239.81 294.547C1239.81 299.703 1239.81 304.858 1239.81 310.013C1237.9 308.486 1235.99 306.958 1234.09 305.431C1230.27 302.376 1226.26 300.085 1222.06 298.557C1217.86 297.029 1213.08 296.457 1207.74 296.839C1202.39 297.22 1197.81 299.13 1193.99 302.567C1190.17 306.004 1187.69 309.059 1186.54 311.732C1185.4 314.405 1184.82 320.897 1184.82 331.207C1184.82 341.518 1186.54 348.392 1189.98 351.829C1191.7 353.547 1193.42 355.266 1195.13 356.984C1195.52 351.829 1195.9 346.673 1196.28 341.518C1197.04 331.207 1198.19 324.525 1199.72 321.47C1201.24 318.415 1203.34 315.741 1206.02 313.45C1208.69 311.159 1211.55 309.822 1214.61 309.44C1217.66 309.059 1220.72 309.44 1223.77 310.586C1226.83 311.732 1232.18 315.932 1239.81 323.188C1243.63 326.816 1247.45 330.444 1251.27 334.071C1251.27 326.816 1251.27 319.56 1251.27 312.305C1251.27 297.793 1249.36 288.628 1245.54 284.809C1243.63 282.9 1241.72 280.991 1239.81 279.081C1239.81 284.237 1239.81 289.392 1239.81 294.547ZM1042.77 299.703C1046.77 299.703 1050.78 299.703 1054.79 299.703C1058.8 299.703 1062.81 299.703 1066.82 299.703C1066.44 302.758 1066.06 305.813 1065.68 308.868C1064.91 314.978 1063.77 318.796 1062.24 320.324C1060.71 321.851 1058.42 322.806 1055.37 323.188C1052.31 323.57 1049.45 322.806 1046.77 320.897C1044.1 318.987 1042.77 314.978 1042.77 308.868C1042.77 305.813 1042.77 302.758 1042.77 299.703Z" fill="#000000" fill-rule="nonzero" opacity="1" stroke="none"/>
<path d="M953.617 314.14L953.617 419.879L567.494 419.879L567.494 241.994L953.617 241.994L953.617 314.14" fill="none" opacity="0" stroke="#000000" stroke-linecap="square" stroke-linejoin="miter" stroke-width="15"/>
<path d="M1016.13 219.839L1329.6 219.839" fill="none" opacity="1" stroke="#000000" stroke-linecap="butt" stroke-linejoin="miter" stroke-width="15"/>
<path d="M663.467 219.839L193.255 219.824" fill="none" opacity="1" stroke="#000000" stroke-linecap="butt" stroke-linejoin="miter" stroke-width="15"/>
<path d="M75.7018 219.839L16.9253 219.839" fill="none" opacity="1" stroke="#000000" stroke-linecap="butt" stroke-linejoin="miter" stroke-width="15"/>
<path d="M1001.79 10.6986C997.61 15.4787 995.519 19.96 995.519 24.1425C995.519 28.3251 996.415 32.2089 998.208 35.794C1000 39.379 1004.78 44.7566 1012.55 51.9267C1020.32 59.0968 1023.9 63.2794 1023.3 64.4744C1022.71 65.6694 1021.21 66.5657 1018.82 67.1632C1016.43 67.7607 1014.04 66.2669 1011.65 62.6819C1010.46 60.8893 1009.26 59.0968 1008.07 57.3043C1007.77 59.6943 1007.47 62.0844 1007.17 64.4744C1006.57 69.2545 997.909 71.3457 981.179 70.7482C964.449 70.1507 952.2 68.9557 944.432 67.1632C940.548 66.2669 936.665 65.3707 932.781 64.4744C936.366 67.7607 939.951 71.047 943.536 74.3333C950.706 80.9059 957.279 85.0884 963.254 86.881C969.229 88.6735 977.893 89.8685 989.245 90.466C1000.6 91.0635 1007.47 100.026 1009.86 117.354C1011.05 126.018 1012.25 134.682 1013.44 143.346C1010.16 142.151 1006.87 140.956 1003.59 139.761C997.013 137.37 988.947 136.175 979.386 136.175C969.826 136.175 963.254 137.072 959.669 138.864C957.876 139.761 956.084 140.657 954.291 141.553C954.889 136.773 955.486 131.993 956.084 127.213C957.279 117.653 954.889 110.184 948.913 104.806C945.926 102.117 942.938 99.4287 939.951 96.7399C939.353 108.093 938.756 119.445 938.158 130.798C936.963 153.503 939.652 167.246 946.225 172.026C952.797 176.806 958.772 175.91 964.15 169.337C969.528 162.765 977.295 158.582 987.453 156.79C997.61 154.997 1005.08 155.296 1009.86 157.686C1014.64 160.076 1020.61 164.557 1027.78 171.13C1031.37 174.416 1034.95 177.702 1038.54 180.989C1038.54 176.806 1038.54 172.623 1038.54 168.441C1038.54 164.258 1038.54 160.076 1038.54 155.893C1038.84 157.088 1039.14 158.283 1039.44 159.478C1040.03 161.868 1043.62 166.051 1050.19 172.026C1056.76 178.001 1065.13 180.989 1075.29 180.989C1085.44 180.989 1092.91 177.702 1097.69 171.13C1102.47 164.557 1106.66 147.827 1110.24 120.939C1113.83 94.0511 1112.33 77.6196 1105.76 71.6445C1102.47 68.657 1099.19 65.6694 1095.9 62.6819C1094.41 75.8271 1092.91 88.9723 1091.42 102.117C1088.43 128.408 1084.25 145.138 1078.87 152.308C1073.49 159.478 1068.12 163.063 1062.74 163.063C1057.36 163.063 1053.48 160.375 1051.09 154.997C1048.7 149.619 1045.41 145.437 1041.23 142.449C1037.05 139.462 1034.06 129.603 1032.27 112.873C1030.47 96.1424 1033.16 87.1797 1040.33 85.9847C1047.5 84.7897 1052.28 80.9059 1054.67 74.3333C1057.06 67.7607 1060.95 62.9806 1066.32 59.9931C1071.7 57.0055 1074.99 53.1217 1076.18 48.3417C1077.38 43.5616 1074.99 38.4828 1069.01 33.1052C1066.03 30.4164 1063.04 27.7276 1060.05 25.0388C1059.15 26.8313 1058.26 28.6239 1057.36 30.4164C1056.47 32.2089 1055.57 34.0014 1054.67 35.794C1054.37 34.599 1054.08 33.4039 1053.78 32.2089C1053.18 29.8189 1049 24.7401 1041.23 16.9724C1033.46 9.20483 1025.99 5.02226 1018.82 4.42476C1011.65 3.82725 1005.98 5.91853 1001.79 10.6986ZM1034.06 21.4538C1037.05 21.4538 1039.14 22.9475 1040.33 25.9351C1041.53 28.9226 1041.83 32.2089 1041.23 35.794C1040.63 39.379 1039.14 42.3666 1036.75 44.7566C1034.36 47.1466 1030.47 48.3417 1025.1 48.3417C1022.41 48.3417 1019.72 48.3417 1017.03 48.3417C1017.03 45.6529 1017.03 42.9641 1017.03 40.2753C1017.03 34.8977 1019.12 30.4164 1023.3 26.8313C1027.49 23.2463 1031.07 21.4538 1034.06 21.4538ZM214.874 48.3417C211.886 51.9267 210.393 55.8105 210.393 59.9931C210.393 64.1756 213.38 70.7482 219.355 79.7109C225.33 88.6735 229.214 93.4536 231.007 94.0511C232.799 94.6486 233.397 96.7399 232.799 100.325C232.202 103.91 234.592 108.989 239.969 115.561C242.658 118.848 245.347 122.134 248.036 125.42C248.334 121.536 248.633 117.653 248.932 113.769C249.529 106.001 253.114 101.819 259.687 101.221C266.26 100.624 270.442 99.4287 272.235 97.6361C274.027 95.8436 272.533 91.661 267.753 85.0884C262.973 78.5159 259.388 75.5283 256.998 76.1258C255.803 76.4246 254.608 76.7233 253.413 77.0221C253.712 75.8271 254.011 74.632 254.309 73.437C254.907 71.047 252.517 65.9682 247.139 58.2006C241.762 50.4329 235.787 45.9516 229.214 44.7566C222.641 43.5616 217.861 44.7566 214.874 48.3417ZM45.4801 72.5408C51.4552 79.1134 59.5216 83.2959 69.6792 85.0884C74.758 85.9847 79.8369 86.881 84.9157 87.7772C84.3182 91.0635 83.7207 94.3498 83.1232 97.6361C81.9281 104.209 73.8618 106.3 58.924 103.91C51.4552 102.715 43.9863 101.52 36.5175 100.325C39.2063 103.014 41.895 105.703 44.5838 108.391C49.9614 113.769 52.3514 121.536 51.7539 131.694C51.1564 141.852 51.4552 147.827 52.6502 149.619C53.8452 151.412 59.2228 156.79 68.7829 165.752C78.3431 174.715 87.3057 179.495 95.6708 180.092C104.036 180.69 110.31 180.092 114.492 178.3C118.675 176.507 121.662 173.52 123.455 169.337C125.248 165.155 126.443 157.088 127.04 145.138C127.638 133.188 130.625 126.615 136.003 125.42C141.38 124.225 144.069 123.03 144.069 121.835C144.069 120.64 141.38 117.354 136.003 111.976C130.625 106.599 123.455 104.507 114.492 105.703C110.011 106.3 105.53 106.898 101.048 107.495C101.347 104.507 101.646 101.52 101.945 98.5324C102.542 92.5573 106.725 89.5698 114.492 89.5698C122.26 89.5698 129.43 88.6735 136.003 86.881C142.575 85.0884 146.459 83.2959 147.654 81.5034C148.849 79.7109 146.758 76.1258 141.38 70.7482C136.003 65.3707 129.131 63.8769 120.766 66.2669C112.401 68.657 100.451 69.852 84.9157 69.852C69.3805 69.852 57.4303 68.657 49.0652 66.2669C44.8826 65.0719 40.7 63.8769 36.5175 62.6819C39.505 65.9682 42.4926 69.2545 45.4801 72.5408ZM333.181 67.1632C332.583 70.1507 330.492 71.9433 326.907 72.5408C325.114 72.8395 323.322 73.1383 321.529 73.437C323.023 75.2296 324.517 77.0221 326.01 78.8146C328.998 82.3997 329.596 93.4536 327.803 111.976C326.01 130.499 326.01 141.553 327.803 145.138C329.596 148.723 336.168 155.594 347.521 165.752C358.873 175.91 368.434 180.989 376.201 180.989C383.969 180.989 389.944 180.092 394.127 178.3C398.309 176.507 401.595 174.117 403.985 171.13C405.18 169.636 406.375 168.142 407.57 166.648C410.259 169.038 412.948 171.428 415.637 173.819C421.014 178.599 428.782 180.989 438.94 180.989C449.097 180.989 456.267 178.599 460.45 173.819C464.633 169.038 467.62 161.57 469.413 151.412C470.309 146.333 471.205 141.254 472.101 136.175C474.193 140.657 476.284 145.138 478.375 149.619C482.558 158.582 487.935 166.051 494.508 172.026C501.081 178.001 509.446 180.989 519.603 180.989C529.761 180.989 537.23 177.702 542.01 171.13C546.79 164.557 550.973 147.827 554.558 120.939C558.143 94.0511 557.246 77.6196 551.869 71.6445C546.491 65.6694 543.205 62.6819 542.01 62.6819C540.815 62.6819 539.919 64.1756 539.321 67.1632C538.724 70.1507 537.23 83.2959 534.84 106.599C532.45 129.902 528.566 145.138 523.188 152.308C517.811 159.478 512.433 163.063 507.056 163.063C501.678 163.063 497.794 160.375 495.404 154.997C493.014 149.619 488.533 144.242 481.96 138.864C475.388 133.487 472.998 123.628 474.79 109.288C476.583 94.9473 480.467 86.881 486.442 85.0884C489.429 84.1922 492.417 83.2959 495.404 82.3997C492.715 79.1134 490.027 75.8271 487.338 72.5408C481.96 65.9682 477.479 63.2794 473.894 64.4744C470.309 65.6694 467.023 65.6694 464.035 64.4744C461.047 63.2794 458.657 63.8769 456.865 66.2669C455.072 68.657 450.292 69.852 442.525 69.852C438.641 69.852 434.757 69.852 430.873 69.852C433.562 73.1383 436.251 76.4246 438.94 79.7109C444.317 86.2835 448.5 89.8685 451.487 90.466C454.475 91.0635 454.774 100.325 452.384 118.25C449.994 136.175 446.409 148.126 441.628 154.101C436.848 160.076 431.77 163.063 426.392 163.063C421.014 163.063 416.832 160.375 413.844 154.997C410.857 149.619 409.363 140.358 409.363 127.213C409.363 114.068 404.583 102.715 395.023 93.1548C385.463 83.5947 377.097 77.3208 369.927 74.3333C362.757 71.3457 356.185 69.852 350.21 69.852C344.235 69.852 340.052 68.657 337.662 66.2669C336.467 65.0719 335.272 63.8769 334.077 62.6819C333.778 64.1756 333.479 65.6694 333.181 67.1632ZM582.342 67.1632C581.744 70.1507 579.653 71.9433 576.068 72.5408C574.275 72.8395 572.483 73.1383 570.69 73.437C572.184 75.2296 573.678 77.0221 575.172 78.8146C578.159 82.3997 578.757 91.3623 576.964 105.703C575.172 120.043 574.275 129.304 574.275 133.487C574.275 137.669 575.172 141.553 576.964 145.138C578.757 148.723 585.329 155.594 596.682 165.752C608.035 175.91 617.595 180.989 625.362 180.989C633.13 180.989 639.105 180.092 643.288 178.3C647.47 176.507 650.757 174.416 653.147 172.026C655.537 169.636 657.03 166.947 657.628 163.96C658.225 160.972 658.524 150.814 658.524 133.487C658.524 116.159 653.744 102.715 644.184 93.1548C634.624 83.5947 626.259 77.3208 619.089 74.3333C611.918 71.3457 605.346 69.852 599.371 69.852C593.396 69.852 589.213 68.657 586.823 66.2669C585.628 65.0719 584.433 63.8769 583.238 62.6819C582.939 64.1756 582.641 65.6694 582.342 67.1632ZM688.997 72.5408C694.972 79.1134 702.142 83.5947 710.507 85.9847C718.873 88.3747 728.134 89.8685 738.292 90.466C748.449 91.0635 753.528 95.5449 753.528 103.91C753.528 108.093 753.528 112.275 753.528 116.458C748.449 115.86 743.37 115.263 738.292 114.665C733.213 114.068 728.134 113.47 723.055 112.873C725.744 115.86 728.433 118.848 731.121 121.835C736.499 127.81 741.578 131.395 746.358 132.59C751.138 133.785 752.931 137.37 751.736 143.346C750.541 149.321 746.358 153.802 739.188 156.79C732.018 159.777 723.354 160.673 713.196 159.478C703.039 158.283 697.96 153.802 697.96 146.034C697.96 138.267 695.271 131.395 689.893 125.42C687.205 122.433 684.516 119.445 681.827 116.458C681.528 121.835 681.229 127.213 680.931 132.59C680.333 143.346 683.321 152.009 689.893 158.582C696.466 165.155 703.636 170.233 711.404 173.819C719.171 177.404 728.134 179.196 738.292 179.196C748.449 179.196 755.918 178.001 760.698 175.611C765.478 173.221 768.466 171.428 769.661 170.233C770.856 169.038 771.453 163.063 771.453 152.308C771.453 141.553 775.038 135.279 782.208 133.487C785.794 132.59 789.379 131.694 792.964 130.798C790.275 127.81 787.586 124.823 784.897 121.835C779.52 115.86 775.636 113.171 773.246 113.769C772.051 114.068 770.856 114.366 769.661 114.665C769.661 110.483 769.661 106.3 769.661 102.117C769.661 93.7523 772.947 88.6735 779.52 86.881C786.092 85.0884 789.976 83.2959 791.171 81.5034C792.366 79.7109 790.275 76.1258 784.897 70.7482C779.52 65.3707 774.142 63.5781 768.765 65.3707C763.387 67.1632 759.204 67.1632 756.217 65.3707C754.723 64.4744 753.229 63.5781 751.736 62.6819C751.437 63.8769 751.138 65.0719 750.839 66.2669C750.242 68.657 742.474 69.852 727.536 69.852C712.599 69.852 700.947 68.657 692.582 66.2669C688.4 65.0719 684.217 63.8769 680.034 62.6819C683.022 65.9682 686.01 69.2545 688.997 72.5408ZM1194.49 84.1922C1194.49 98.5324 1197.78 108.69 1204.35 114.665C1210.92 120.64 1213.31 128.109 1211.52 137.072C1209.73 146.034 1212.71 154.399 1220.48 162.167C1228.25 169.935 1234.22 174.715 1238.41 176.507C1242.59 178.3 1248.56 179.196 1256.33 179.196C1264.1 179.196 1270.37 178.001 1275.15 175.611C1279.93 173.221 1282.92 169.636 1284.12 164.856C1285.31 160.076 1285.01 154.399 1283.22 147.827C1282.32 144.541 1281.43 141.254 1280.53 137.968C1282.62 137.37 1284.71 136.773 1286.8 136.175C1290.99 134.98 1293.08 126.914 1293.08 111.976C1293.08 97.0386 1295.77 88.3747 1301.14 85.9847C1306.52 83.5947 1309.21 81.8021 1309.21 80.6071C1309.21 79.4121 1306.52 76.1258 1301.14 70.7482C1295.77 65.3707 1291.29 63.2794 1287.7 64.4744C1284.12 65.6694 1280.83 65.6694 1277.84 64.4744C1276.35 63.8769 1274.85 63.2794 1273.36 62.6819C1273.36 63.5781 1273.36 64.4744 1273.36 65.3707C1273.36 67.1632 1272.17 68.3582 1269.78 68.9557C1267.39 69.5532 1262.31 69.852 1254.54 69.852C1250.66 69.852 1246.77 69.852 1242.89 69.852C1245.88 73.1383 1248.86 76.4246 1251.85 79.7109C1257.83 86.2835 1263.2 89.8685 1267.98 90.466C1272.76 91.0635 1274.85 95.5449 1274.26 103.91C1273.66 112.275 1272.46 116.756 1270.67 117.354C1268.88 117.951 1266.79 117.055 1264.4 114.665C1263.2 113.47 1262.01 112.275 1260.81 111.08C1260.81 112.574 1260.81 114.068 1260.81 115.561C1260.81 118.549 1256.03 120.341 1246.47 120.939C1236.91 121.536 1230.04 119.146 1225.86 113.769C1221.68 108.391 1218.99 105.703 1217.79 105.703C1216.6 105.703 1215.4 107.495 1214.21 111.08C1213.61 112.873 1213.01 114.665 1212.41 116.458C1212.41 110.184 1212.41 103.91 1212.41 97.6361C1212.41 85.0884 1209.43 76.1258 1203.45 70.7482C1200.46 68.0594 1197.48 65.3707 1194.49 62.6819C1194.49 69.852 1194.49 77.0221 1194.49 84.1922ZM233.695 64.4744C233.994 66.5657 234.293 68.657 234.592 70.7482C234.89 72.8395 235.189 74.9308 235.488 77.0221C234.592 76.4246 233.695 75.8271 232.799 75.2296C231.007 74.0345 230.708 71.9433 231.903 68.9557C232.5 67.4619 233.098 65.9682 233.695 64.4744ZM1129.06 89.5698C1128.76 96.7399 1128.46 103.91 1128.17 111.08C1126.37 110.483 1124.58 109.885 1122.79 109.288C1121 108.69 1119.2 108.093 1117.41 107.495C1119.2 109.586 1121 111.678 1122.79 113.769C1126.37 117.951 1128.17 127.512 1128.17 142.449C1128.17 157.387 1131.15 167.545 1137.13 172.922C1140.12 175.611 1143.1 178.3 1146.09 180.989C1146.09 172.325 1146.09 163.661 1146.09 154.997C1146.09 146.333 1146.09 137.669 1146.09 129.005C1147.29 129.902 1148.48 130.798 1149.68 131.694C1152.07 133.487 1156.25 134.383 1162.22 134.383C1168.2 134.383 1174.17 132.59 1180.15 129.005C1186.12 125.42 1189.71 121.536 1190.9 117.354C1192.1 113.171 1189.71 106.001 1183.73 95.8436C1177.76 85.686 1170.59 78.5159 1162.22 74.3333C1153.86 70.1507 1146.39 68.0594 1139.82 68.0594C1133.24 68.0594 1129.66 75.2296 1129.06 89.5698ZM366.342 86.881C371.122 87.4785 376.201 89.8685 381.579 94.0511C386.956 98.2336 389.645 108.391 389.645 124.524C389.645 140.657 387.554 150.516 383.371 154.101C379.189 157.686 373.214 160.076 365.446 161.271C357.678 162.466 352.301 161.57 349.313 158.582C346.326 155.594 344.832 151.412 344.832 146.034C344.832 140.657 346.027 129.603 348.417 112.873C350.807 96.1424 353.197 87.4785 355.587 86.881C357.977 86.2835 361.562 86.2835 366.342 86.881ZM615.504 86.881C620.284 87.4785 625.362 89.8685 630.74 94.0511C636.118 98.2336 638.806 108.391 638.806 124.524C638.806 140.657 636.715 150.516 632.533 154.101C628.35 157.686 622.375 160.076 614.607 161.271C606.84 162.466 601.462 161.57 598.475 158.582C595.487 155.594 593.993 151.412 593.993 146.034C593.993 140.657 595.188 129.603 597.578 112.873C599.968 96.1424 602.358 87.4785 604.748 86.881C607.138 86.2835 610.723 86.2835 615.504 86.881ZM1156.85 87.7772C1162.82 87.7772 1167 88.3747 1169.39 89.5698C1171.78 90.7648 1172.98 92.2586 1172.98 94.0511C1172.98 95.8436 1170.89 99.1299 1166.71 103.91C1162.52 108.69 1158.04 111.976 1153.26 113.769C1150.87 114.665 1148.48 115.561 1146.09 116.458C1146.39 111.678 1146.69 106.898 1146.99 102.117C1147.59 92.5573 1150.87 87.7772 1156.85 87.7772ZM191.571 127.213C190.973 151.113 194.26 165.752 201.43 171.13C205.015 173.819 208.6 176.507 212.185 179.196C213.081 177.404 213.978 175.611 214.874 173.819C216.666 170.233 219.654 166.648 223.836 163.063C228.019 159.478 232.5 157.088 237.28 155.893C242.061 154.698 248.036 154.698 255.206 155.893C262.376 157.088 266.857 158.283 268.65 159.478C270.442 160.673 271.637 166.947 272.235 178.3C272.832 189.652 276.119 198.018 282.094 203.395C285.081 206.084 288.069 208.773 291.056 211.462C291.056 196.823 291.056 182.184 291.056 167.545C291.056 138.267 288.069 120.939 282.094 115.561C279.106 112.873 276.119 110.184 273.131 107.495C273.131 114.366 273.131 121.238 273.131 128.109C273.131 134.98 273.131 141.852 273.131 148.723C268.65 146.632 264.168 144.541 259.687 142.449C250.724 138.267 241.762 136.175 232.799 136.175C223.836 136.175 218.16 136.773 215.77 137.968C214.575 138.565 213.38 139.163 212.185 139.761C212.484 134.98 212.783 130.2 213.081 125.42C213.679 115.86 210.393 107.794 203.222 101.221C199.637 97.9349 196.052 94.6486 192.467 91.3623C192.169 103.312 191.87 115.263 191.571 127.213ZM70.5755 125.42C76.8493 125.42 83.1232 125.42 89.397 125.42C95.6708 125.42 101.945 125.42 108.219 125.42C107.621 130.2 107.024 134.98 106.426 139.761C105.231 149.321 103.438 155.296 101.048 157.686C98.6584 160.076 95.0733 161.57 90.2933 162.167C85.5132 162.765 81.0319 161.57 76.8493 158.582C72.6667 155.594 70.5755 149.321 70.5755 139.761C70.5755 134.98 70.5755 130.2 70.5755 125.42ZM160.202 183.677C156.617 218.93 152.135 238.051 146.758 241.038C141.38 244.026 136.6 245.221 132.418 244.623C128.235 244.026 125.248 242.831 123.455 241.038C121.662 239.246 120.467 235.959 119.87 231.179C119.571 228.789 119.272 226.399 118.974 224.009C121.364 225.802 123.754 227.594 126.144 229.387C130.924 232.972 135.106 234.764 138.691 234.764C142.277 234.764 145.264 233.569 147.654 231.179C150.044 228.789 151.239 224.906 151.239 219.528C151.239 214.15 147.654 207.877 140.484 200.706C133.314 193.536 127.339 189.652 122.559 189.055C117.779 188.457 112.999 190.848 108.219 196.225C103.438 201.603 101.048 207.578 101.048 214.15C101.048 220.723 101.945 225.802 103.737 229.387C105.53 232.972 111.804 238.947 122.559 247.312C133.314 255.677 143.173 259.561 152.135 258.964C161.098 258.366 166.774 257.171 169.164 255.378C171.554 253.586 173.048 251.495 173.646 249.105C174.243 246.715 176.036 229.088 179.023 196.225C182.011 163.362 180.517 144.242 174.542 138.864C171.554 136.175 168.567 133.487 165.579 130.798C163.787 148.424 161.994 166.051 160.202 183.677ZM1250.06 137.968C1260.81 139.163 1266.49 141.254 1267.09 144.242C1267.68 147.229 1265.59 150.516 1260.81 154.101C1256.03 157.686 1250.36 159.777 1243.78 160.375C1237.21 160.972 1233.33 160.972 1232.13 160.375C1230.94 159.777 1230.34 157.985 1230.34 154.997C1230.34 152.009 1230.94 148.126 1232.13 143.346C1233.33 138.565 1239.3 136.773 1250.06 137.968ZM687.205 199.81C688.4 209.968 691.985 218.034 697.96 224.009C703.935 229.984 709.91 234.466 715.885 237.453C721.86 240.441 733.512 241.935 750.839 241.935C768.167 241.935 779.52 240.739 784.897 238.349C790.275 235.959 795.652 232.374 801.03 227.594C806.408 222.814 807.005 217.735 802.823 212.358C798.64 206.98 795.354 203.993 792.964 203.395C790.574 202.798 787.885 204.291 784.897 207.877C781.91 211.462 776.532 215.047 768.765 218.632C760.997 222.217 749.047 223.71 732.914 223.113C716.781 222.515 708.117 218.632 706.922 211.462C705.727 204.291 701.844 198.018 695.271 192.64C691.985 189.951 688.698 187.262 685.412 184.574C686.01 189.652 686.607 194.731 687.205 199.81ZM131.521 206.084C131.223 208.175 130.924 210.267 130.625 212.358C130.028 216.54 128.235 219.229 125.248 220.424C123.754 221.022 122.26 221.619 120.766 222.217C121.364 220.424 121.961 218.632 122.559 216.839C123.754 213.254 125.546 210.565 127.936 208.773C129.131 207.877 130.326 206.98 131.521 206.084Z" fill="#000000" fill-rule="nonzero" opacity="1" stroke="none"/>
<path d="M846.177 198.912C844.901 199.55 843.518 200.933 842.029 203.06C840.541 205.187 839.796 206.569 839.796 207.207C839.796 207.845 840.753 209.122 842.668 211.036C844.582 212.95 845.752 213.907 846.177 213.907C846.602 213.907 846.921 213.376 847.134 212.312C847.347 211.249 847.985 210.079 849.048 208.803C850.112 207.526 851.707 206.463 853.834 205.612C855.961 204.761 858.194 204.761 860.534 205.612C862.874 206.463 864.363 207.42 865.001 208.484C865.639 209.547 865.958 210.717 865.958 211.993C865.958 213.269 861.704 216.885 853.196 222.841C844.688 228.796 840.328 232.093 840.115 232.731C839.902 233.369 840.753 234.645 842.668 236.56C844.582 238.474 850.325 239.431 859.896 239.431C864.682 239.431 869.467 239.431 874.253 239.431C873.296 238.368 872.339 237.304 871.382 236.241C869.467 234.114 866.49 232.944 862.448 232.731C860.428 232.625 858.407 232.518 856.387 232.412C859.152 230.391 861.917 228.371 864.682 226.35C870.212 222.309 872.764 218.799 872.339 215.822C871.913 212.844 869.786 209.441 865.958 205.612C862.129 201.784 859.471 199.55 857.982 198.912C856.493 198.274 854.472 197.955 851.92 197.955C849.367 197.955 847.453 198.274 846.177 198.912ZM882.229 199.55C882.017 200.614 881.272 201.252 879.996 201.465C879.358 201.571 878.72 201.677 878.082 201.784C878.613 202.422 879.145 203.06 879.677 203.698C880.74 204.974 880.953 208.165 880.315 213.269C879.677 218.374 879.571 222.096 879.996 224.436C880.421 226.776 882.761 229.86 887.015 233.688C891.269 237.517 894.778 239.431 897.544 239.431C900.309 239.431 902.436 239.112 903.924 238.474C905.413 237.836 906.583 237.091 907.434 236.241C908.285 235.39 908.817 234.433 909.029 233.369C909.242 232.306 909.348 228.796 909.348 222.841C909.348 216.885 907.54 212.099 903.924 208.484C900.309 204.868 897.437 202.634 895.31 201.784C893.183 200.933 890.95 200.507 888.61 200.507C886.271 200.507 884.675 200.082 883.825 199.231C883.399 198.806 882.974 198.38 882.548 197.955C882.442 198.487 882.336 199.019 882.229 199.55ZM918.92 198.912C917.643 199.55 916.261 200.933 914.772 203.06C913.283 205.187 912.539 206.569 912.539 207.207C912.539 207.845 913.496 209.122 915.41 211.036C917.324 212.95 918.494 213.907 918.92 213.907C919.345 213.907 919.664 213.376 919.877 212.312C920.089 211.249 920.728 210.079 921.791 208.803C922.855 207.526 924.45 206.463 926.577 205.612C928.704 204.761 930.937 204.761 933.277 205.612C935.616 206.463 937.105 207.42 937.743 208.484C938.381 209.547 938.701 210.717 938.701 211.993C938.701 213.269 934.447 216.885 925.939 222.841C917.431 228.796 913.07 232.093 912.858 232.731C912.645 233.369 913.496 234.645 915.41 236.56C917.324 238.474 923.067 239.431 932.639 239.431C937.424 239.431 942.21 239.431 946.996 239.431C946.039 238.368 945.081 237.304 944.124 236.241C942.21 234.114 939.232 232.944 935.191 232.731C933.17 232.625 931.15 232.518 929.129 232.412C931.894 230.391 934.659 228.371 937.424 226.35C942.955 222.309 945.507 218.799 945.081 215.822C944.656 212.844 942.529 209.441 938.701 205.612C934.872 201.784 932.213 199.55 930.724 198.912C929.235 198.274 927.215 197.955 924.662 197.955C922.11 197.955 920.196 198.274 918.92 198.912ZM956.248 199.869C954.334 201.146 953.164 202.634 952.739 204.336C952.313 206.038 953.164 207.845 955.291 209.76C956.354 210.717 957.418 211.674 958.481 212.631C958.8 211.887 959.12 211.142 959.439 210.398C960.077 208.909 960.927 207.739 961.991 206.888C963.054 206.038 964.862 205.506 967.415 205.293C969.967 205.08 971.456 205.293 971.881 205.931C972.307 206.569 972.413 207.739 972.2 209.441C971.988 211.142 971.031 212.631 969.329 213.907C968.478 214.545 967.627 215.184 966.777 215.822C967.627 216.779 968.478 217.736 969.329 218.693C971.031 220.607 971.988 222.309 972.2 223.798C972.413 225.287 971.881 226.882 970.605 228.584C969.329 230.285 967.308 231.455 964.543 232.093C961.778 232.731 959.758 231.987 958.481 229.86C957.205 227.733 955.929 226.031 954.653 224.755C954.015 224.117 953.377 223.479 952.739 222.841C952.632 223.16 952.526 223.479 952.42 223.798C952.207 224.436 952.42 225.606 953.058 227.307C953.696 229.009 955.185 231.136 957.524 233.688C959.864 236.241 961.672 237.836 962.948 238.474C964.224 239.112 966.032 239.431 968.372 239.431C970.712 239.431 972.413 239.218 973.477 238.793C974.54 238.368 975.71 237.41 976.986 235.922C978.262 234.433 978.9 232.837 978.9 231.136C978.9 229.434 978.262 227.52 976.986 225.393C975.71 223.266 975.71 221.458 976.986 219.969C978.262 218.48 978.9 216.46 978.9 213.907C978.9 211.355 977.199 208.271 973.796 204.655C970.393 201.039 967.096 199.019 963.905 198.593C960.715 198.168 958.162 198.593 956.248 199.869ZM894.991 206.888C897.756 207.314 899.777 208.165 901.053 209.441C902.329 210.717 902.861 214.12 902.648 219.65C902.436 225.18 901.797 228.477 900.734 229.541C899.671 230.604 898.075 231.455 895.948 232.093C893.821 232.731 892.226 233.05 891.163 233.05C890.099 233.05 889.036 232.625 887.972 231.774C886.909 230.923 886.802 226.669 887.653 219.012C888.504 211.355 889.248 207.314 889.886 206.888C890.525 206.463 892.226 206.463 894.991 206.888Z" fill="#000000" fill-rule="nonzero" opacity="1" stroke="none"/>
</g>
</svg>
