<?xml version="1.0" encoding="UTF-8" standalone="no"?>
<!DOCTYPE svg PUBLIC "-//W3C//DTD SVG 1.1//EN" "http://www.w3.org/Graphics/SVG/1.1/DTD/svg11.dtd">
<!-- Created with Vectornator (http://vectornator.io/) -->
<svg height="100%" stroke-miterlimit="10" style="fill-rule:nonzero;clip-rule:evenodd;stroke-linecap:round;stroke-linejoin:round;" version="1.1" viewBox="0 0 695 155" width="100%" xml:space="preserve" xmlns="http://www.w3.org/2000/svg" xmlns:vectornator="http://vectornator.io" xmlns:xlink="http://www.w3.org/1999/xlink">
<defs/>
<g id="Layer-2" vectornator:layerName="Layer 2">
<path d="M510.966 17.3795C508.887 19.755 507.848 21.9821 507.848 24.0607C507.848 26.1393 508.293 28.0694 509.184 29.851C510.075 31.6326 512.45 34.3051 516.31 37.8684C520.171 41.4317 521.952 43.5103 521.655 44.1041C521.358 44.698 520.616 45.1434 519.428 45.4404C518.241 45.7373 517.053 44.995 515.865 43.2133C515.271 42.3225 514.677 41.4317 514.083 40.5409C513.935 41.7286 513.786 42.9164 513.638 44.1041C513.341 46.4797 509.035 47.5189 500.721 47.222C492.407 46.9251 486.32 46.3312 482.459 45.4404C480.529 44.995 478.599 44.5495 476.669 44.1041C478.451 45.7373 480.232 47.3705 482.014 49.0036C485.577 52.27 488.843 54.3486 491.813 55.2394C494.782 56.1302 499.088 56.7241 504.73 57.021C510.372 57.318 513.786 61.7721 514.974 70.3833C515.568 74.689 516.162 78.9946 516.756 83.3002C515.123 82.7064 513.49 82.1125 511.856 81.5186C508.59 80.3308 504.581 79.7369 499.83 79.7369C495.079 79.7369 491.813 80.1824 490.031 81.0732C489.14 81.5186 488.25 81.964 487.359 82.4094C487.656 80.0339 487.953 77.6584 488.25 75.2828C488.843 70.5318 487.656 66.8201 484.686 64.1476C483.202 62.8114 481.717 61.4751 480.232 60.1389C479.935 65.7808 479.638 71.4226 479.341 77.0645C478.748 88.3482 480.084 95.1778 483.35 97.5534C486.616 99.9289 489.586 99.4835 492.258 96.2171C494.931 92.9508 498.791 90.8722 503.839 89.9814C508.887 89.0906 512.599 89.239 514.974 90.4268C517.35 91.6146 520.319 93.8416 523.882 97.1079C525.664 98.7411 527.446 100.374 529.227 102.007C529.227 99.9289 529.227 97.8503 529.227 95.7717C529.227 93.6931 529.227 91.6146 529.227 89.536C529.376 90.1299 529.524 90.7237 529.673 91.3176C529.97 92.5054 531.751 94.584 535.018 97.5534C538.284 100.523 542.441 102.007 547.489 102.007C552.537 102.007 556.249 100.374 558.624 97.1079C561 93.8416 563.079 85.5273 564.86 72.165C566.642 58.8027 565.899 50.6368 562.633 47.6674C561 46.1827 559.367 44.698 557.734 43.2133C556.991 49.746 556.249 56.2787 555.507 62.8114C554.022 75.8767 551.943 84.1911 549.271 87.7543C546.598 91.3176 543.926 93.0993 541.253 93.0993C538.581 93.0993 536.651 91.763 535.463 89.0906C534.275 86.4181 532.642 84.3395 530.564 82.8548C528.485 81.3701 527 76.4706 526.109 68.1563C525.219 59.842 526.555 55.3879 530.118 54.794C533.681 54.2001 536.057 52.27 537.245 49.0036C538.432 45.7373 540.363 43.3618 543.035 41.8771C545.708 40.3924 547.341 38.4623 547.935 36.0868C548.528 33.7112 547.341 31.1872 544.371 28.5148C542.887 27.1785 541.402 25.8423 539.917 24.5061C539.472 25.3969 539.026 26.2877 538.581 27.1785C538.136 28.0694 537.69 28.9602 537.245 29.851C537.096 29.2571 536.948 28.6632 536.799 28.0694C536.502 26.8816 534.424 24.3576 530.564 20.4974C526.703 16.6372 522.992 14.5586 519.428 14.2617C515.865 13.9647 513.044 15.004 510.966 17.3795ZM527 22.7244C528.485 22.7244 529.524 23.4668 530.118 24.9515C530.712 26.4362 530.861 28.0694 530.564 29.851C530.267 31.6326 529.524 33.1173 528.337 34.3051C527.149 35.4929 525.219 36.0868 522.546 36.0868C521.21 36.0868 519.874 36.0868 518.538 36.0868C518.538 34.7505 518.538 33.4143 518.538 32.0781C518.538 29.4056 519.577 27.1785 521.655 25.3969C523.734 23.6153 525.516 22.7244 527 22.7244ZM119.895 36.0868C118.411 37.8684 117.668 39.7985 117.668 41.8771C117.668 43.9557 119.153 47.222 122.122 51.6761C125.092 56.1302 127.022 58.5057 127.913 58.8027C128.804 59.0996 129.101 60.1389 128.804 61.9205C128.507 63.7022 129.694 66.2262 132.367 69.4925C133.703 71.1257 135.039 72.7589 136.376 74.392C136.524 72.4619 136.673 70.5318 136.821 68.6017C137.118 64.7415 138.9 62.6629 142.166 62.366C145.432 62.069 147.511 61.4751 148.402 60.5843C149.292 59.6935 148.55 57.6149 146.175 54.3486C143.799 51.0822 142.017 49.5975 140.83 49.8945C140.236 50.0429 139.642 50.1914 139.048 50.3399C139.197 49.746 139.345 49.1521 139.493 48.5582C139.79 47.3705 138.603 44.8465 135.93 40.9863C133.258 37.126 130.288 34.899 127.022 34.3051C123.756 33.7112 121.38 34.3051 119.895 36.0868ZM35.7129 48.1128C38.6823 51.3792 42.691 53.4577 47.7389 54.3486C50.2629 54.794 52.7869 55.2394 55.3109 55.6848C55.014 57.318 54.717 58.9511 54.4201 60.5843C53.8262 63.8507 49.8175 64.8899 42.394 63.7022C38.6823 63.1083 34.9705 62.5144 31.2588 61.9205C32.595 63.2568 33.9312 64.593 35.2675 65.9292C37.9399 68.6017 39.1277 72.4619 38.8307 77.5099C38.5338 82.5579 38.6823 85.5273 39.2762 86.4181C39.87 87.3089 42.5425 89.9814 47.2935 94.4355C52.0446 98.8896 56.4987 101.265 60.6558 101.562C64.813 101.859 67.9309 101.562 70.0095 100.671C72.088 99.7804 73.5727 98.2957 74.4636 96.2171C75.3544 94.1385 75.9483 90.1299 76.2452 84.1911C76.5421 78.2522 78.0268 74.9859 80.6993 74.392C83.3718 73.7981 84.708 73.2043 84.708 72.6104C84.708 72.0165 83.3718 70.3833 80.6993 67.7109C78.0268 65.0384 74.4636 63.9991 70.0095 64.593C67.7824 64.8899 65.5554 65.1869 63.3283 65.4838C63.4768 63.9991 63.6252 62.5144 63.7737 61.0297C64.0707 58.0603 66.1492 56.5756 70.0095 56.5756C73.8697 56.5756 77.433 56.1302 80.6993 55.2394C83.9656 54.3486 85.8958 53.4577 86.4896 52.5669C87.0835 51.6761 86.0442 49.8945 83.3718 47.222C80.6993 44.5495 77.2845 43.8072 73.1273 44.995C68.9702 46.1827 63.0314 46.7766 55.3109 46.7766C47.5905 46.7766 41.6517 46.1827 37.4945 44.995C35.4159 44.4011 33.3373 43.8072 31.2588 43.2133C32.7435 44.8465 34.2282 46.4797 35.7129 48.1128ZM178.69 45.4404C178.393 46.9251 177.353 47.8159 175.572 48.1128C174.681 48.2613 173.79 48.4098 172.899 48.5582C173.642 49.4491 174.384 50.3399 175.126 51.2307C176.611 53.0123 176.908 58.5057 176.017 67.7109C175.126 76.916 175.126 82.4094 176.017 84.1911C176.908 85.9727 180.174 89.3875 185.816 94.4355C191.458 99.4835 196.209 102.007 200.069 102.007C203.929 102.007 206.899 101.562 208.977 100.671C211.056 99.7804 212.689 98.5926 213.877 97.1079C214.471 96.3656 215.065 95.6232 215.659 94.8809C216.995 96.0687 218.331 97.2564 219.667 98.4442C222.34 100.82 226.2 102.007 231.248 102.007C236.296 102.007 239.859 100.82 241.938 98.4442C244.016 96.0687 245.501 92.3569 246.392 87.3089C246.837 84.7849 247.283 82.2609 247.728 79.7369C248.767 81.964 249.807 84.1911 250.846 86.4181C252.925 90.8722 255.597 94.584 258.863 97.5534C262.13 100.523 266.287 102.007 271.335 102.007C276.383 102.007 280.095 100.374 282.47 97.1079C284.846 93.8416 286.924 85.5273 288.706 72.165C290.487 58.8027 290.042 50.6368 287.37 47.6674C284.697 44.698 283.064 43.2133 282.47 43.2133C281.876 43.2133 281.431 43.9557 281.134 45.4404C280.837 46.9251 280.095 53.4577 278.907 65.0384C277.719 76.6191 275.789 84.1911 273.116 87.7543C270.444 91.3176 267.772 93.0993 265.099 93.0993C262.427 93.0993 260.497 91.763 259.309 89.0906C258.121 86.4181 255.894 83.7456 252.628 81.0732C249.361 78.4007 248.174 73.5012 249.064 66.3746C249.955 59.2481 251.885 55.2394 254.855 54.3486C256.339 53.9032 257.824 53.4577 259.309 53.0123C257.973 51.3792 256.636 49.746 255.3 48.1128C252.628 44.8465 250.401 43.5103 248.619 44.1041C246.837 44.698 245.204 44.698 243.719 44.1041C242.235 43.5103 241.047 43.8072 240.156 44.995C239.265 46.1827 236.89 46.7766 233.03 46.7766C231.099 46.7766 229.169 46.7766 227.239 46.7766C228.575 48.4098 229.912 50.0429 231.248 51.6761C233.92 54.9424 235.999 56.7241 237.484 57.021C238.968 57.318 239.117 61.9205 237.929 70.8287C236.741 79.7369 234.96 85.6758 232.584 88.6452C230.209 91.6146 227.685 93.0993 225.012 93.0993C222.34 93.0993 220.261 91.763 218.776 89.0906C217.292 86.4181 216.549 81.8155 216.549 75.2828C216.549 68.7502 214.174 63.1083 209.423 58.3573C204.672 53.6062 200.515 50.4883 196.951 49.0036C193.388 47.5189 190.122 46.7766 187.152 46.7766C184.183 46.7766 182.104 46.1827 180.917 44.995C180.323 44.4011 179.729 43.8072 179.135 43.2133C178.986 43.9557 178.838 44.698 178.69 45.4404ZM302.514 45.4404C302.217 46.9251 301.177 47.8159 299.396 48.1128C298.505 48.2613 297.614 48.4098 296.723 48.5582C297.466 49.4491 298.208 50.3399 298.95 51.2307C300.435 53.0123 300.732 57.4664 299.841 64.593C298.95 71.7196 298.505 76.3221 298.505 78.4007C298.505 80.4793 298.95 82.4094 299.841 84.1911C300.732 85.9727 303.998 89.3875 309.64 94.4355C315.282 99.4835 320.033 102.007 323.893 102.007C327.753 102.007 330.723 101.562 332.801 100.671C334.88 99.7804 336.513 98.7411 337.701 97.5534C338.889 96.3656 339.631 95.0294 339.928 93.5447C340.225 92.06 340.373 87.012 340.373 78.4007C340.373 69.7895 337.998 63.1083 333.247 58.3573C328.496 53.6062 324.339 50.4883 320.775 49.0036C317.212 47.5189 313.946 46.7766 310.976 46.7766C308.007 46.7766 305.928 46.1827 304.741 44.995C304.147 44.4011 303.553 43.8072 302.959 43.2133C302.811 43.9557 302.662 44.698 302.514 45.4404ZM355.517 48.1128C358.487 51.3792 362.05 53.6062 366.207 54.794C370.364 55.9817 374.967 56.7241 380.015 57.021C385.063 57.318 387.587 59.545 387.587 63.7022C387.587 65.7808 387.587 67.8593 387.587 69.9379C385.063 69.641 382.539 69.344 380.015 69.0471C377.491 68.7502 374.967 68.4532 372.443 68.1563C373.779 69.641 375.115 71.1257 376.452 72.6104C379.124 75.5798 381.648 77.3614 384.024 77.9553C386.399 78.5492 387.29 80.3308 386.696 83.3002C386.102 86.2696 384.024 88.4967 380.46 89.9814C376.897 91.4661 372.591 91.9115 367.543 91.3176C362.495 90.7237 359.971 88.4967 359.971 84.6365C359.971 80.7762 358.635 77.3614 355.963 74.392C354.627 72.9073 353.29 71.4226 351.954 69.9379C351.806 72.6104 351.657 75.2828 351.509 77.9553C351.212 83.3002 352.696 87.6059 355.963 90.8722C359.229 94.1385 362.792 96.6625 366.653 98.4442C370.513 100.226 374.967 101.117 380.015 101.117C385.063 101.117 388.775 100.523 391.15 99.335C393.526 98.1472 395.01 97.2564 395.604 96.6625C396.198 96.0687 396.495 93.0993 396.495 87.7543C396.495 82.4094 398.277 79.2915 401.84 78.4007C403.622 77.9553 405.403 77.5099 407.185 77.0645C405.849 75.5798 404.513 74.0951 403.176 72.6104C400.504 69.641 398.574 68.3048 397.386 68.6017C396.792 68.7502 396.198 68.8986 395.604 69.0471C395.604 66.9685 395.604 64.8899 395.604 62.8114C395.604 58.6542 397.237 56.1302 400.504 55.2394C403.77 54.3486 405.7 53.4577 406.294 52.5669C406.888 51.6761 405.849 49.8945 403.176 47.222C400.504 44.5495 397.831 43.6587 395.159 44.5495C392.486 45.4404 390.408 45.4404 388.923 44.5495C388.181 44.1041 387.438 43.6587 386.696 43.2133C386.548 43.8072 386.399 44.4011 386.251 44.995C385.954 46.1827 382.094 46.7766 374.67 46.7766C367.247 46.7766 361.456 46.1827 357.299 44.995C355.22 44.4011 353.142 43.8072 351.063 43.2133C352.548 44.8465 354.033 46.4797 355.517 48.1128ZM606.729 53.9032C606.729 61.0297 608.362 66.0777 611.628 69.0471C614.895 72.0165 616.082 75.7283 615.192 80.1824C614.301 84.6365 615.785 88.7936 619.646 92.6538C623.506 96.5141 626.475 98.8896 628.554 99.7804C630.632 100.671 633.602 101.117 637.462 101.117C641.322 101.117 644.44 100.523 646.816 99.335C649.191 98.1472 650.676 96.3656 651.27 93.9901C651.864 91.6146 651.715 88.7936 650.824 85.5273C650.379 83.8941 649.934 82.2609 649.488 80.6278C650.527 80.3308 651.567 80.0339 652.606 79.7369C654.685 79.1431 655.724 75.1344 655.724 67.7109C655.724 60.2874 657.06 55.9817 659.733 54.794C662.405 53.6062 663.741 52.7154 663.741 52.1215C663.741 51.5276 662.405 49.8945 659.733 47.222C657.06 44.5495 654.833 43.5103 653.051 44.1041C651.27 44.698 649.637 44.698 648.152 44.1041C647.41 43.8072 646.667 43.5103 645.925 43.2133C645.925 43.6587 645.925 44.1041 645.925 44.5495C645.925 45.4404 645.331 46.0342 644.143 46.3312C642.955 46.6281 640.431 46.7766 636.571 46.7766C634.641 46.7766 632.711 46.7766 630.781 46.7766C632.266 48.4098 633.75 50.0429 635.235 51.6761C638.204 54.9424 640.877 56.7241 643.252 57.021C645.628 57.318 646.667 59.545 646.37 63.7022C646.073 67.8593 645.479 70.0864 644.589 70.3833C643.698 70.6803 642.658 70.2349 641.471 69.0471C640.877 68.4532 640.283 67.8593 639.689 67.2655C639.689 68.0078 639.689 68.7502 639.689 69.4925C639.689 70.9772 637.314 71.868 632.563 72.165C627.811 72.4619 624.397 71.2742 622.318 68.6017C620.24 65.9292 618.903 64.593 618.309 64.593C617.716 64.593 617.122 65.4838 616.528 67.2655C616.231 68.1563 615.934 69.0471 615.637 69.9379C615.637 66.8201 615.637 63.7022 615.637 60.5843C615.637 54.3486 614.152 49.8945 611.183 47.222C609.698 45.8858 608.213 44.5495 606.729 43.2133C606.729 46.7766 606.729 50.3399 606.729 53.9032ZM129.249 44.1041C129.397 45.1434 129.546 46.1827 129.694 47.222C129.843 48.2613 129.991 49.3006 130.14 50.3399C129.694 50.0429 129.249 49.746 128.804 49.4491C127.913 48.8552 127.764 47.8159 128.358 46.3312C128.655 45.5888 128.952 44.8465 129.249 44.1041ZM574.214 56.5756C574.065 60.1389 573.917 63.7022 573.768 67.2655C572.878 66.9685 571.987 66.6716 571.096 66.3746C570.205 66.0777 569.314 65.7808 568.423 65.4838C569.314 66.5231 570.205 67.5624 571.096 68.6017C572.878 70.6803 573.768 75.4313 573.768 82.8548C573.768 90.2783 575.253 95.3263 578.222 97.9988C579.707 99.335 581.192 100.671 582.677 102.007C582.677 97.7018 582.677 93.3962 582.677 89.0906C582.677 84.7849 582.677 80.4793 582.677 76.1737C583.27 76.6191 583.864 77.0645 584.458 77.5099C585.646 78.4007 587.725 78.8461 590.694 78.8461C593.663 78.8461 596.633 77.9553 599.602 76.1737C602.572 74.392 604.353 72.4619 604.947 70.3833C605.541 68.3048 604.353 64.7415 601.384 59.6935C598.414 54.6455 594.851 51.0822 590.694 49.0036C586.537 46.9251 582.825 45.8858 579.559 45.8858C576.292 45.8858 574.511 49.4491 574.214 56.5756ZM195.17 55.2394C197.545 55.5363 200.069 56.7241 202.742 58.8027C205.414 60.8813 206.75 65.9292 206.75 73.9466C206.75 81.964 205.711 86.8635 203.633 88.6452C201.554 90.4268 198.585 91.6146 194.724 92.2084C190.864 92.8023 188.192 92.3569 186.707 90.8722C185.222 89.3875 184.48 87.3089 184.48 84.6365C184.48 81.964 185.074 76.4706 186.262 68.1563C187.449 59.842 188.637 55.5363 189.825 55.2394C191.013 54.9424 192.794 54.9424 195.17 55.2394ZM318.994 55.2394C321.369 55.5363 323.893 56.7241 326.566 58.8027C329.238 60.8813 330.574 65.9292 330.574 73.9466C330.574 81.964 329.535 86.8635 327.457 88.6452C325.378 90.4268 322.409 91.6146 318.548 92.2084C314.688 92.8023 312.016 92.3569 310.531 90.8722C309.046 89.3875 308.304 87.3089 308.304 84.6365C308.304 81.964 308.898 76.4706 310.086 68.1563C311.273 59.842 312.461 55.5363 313.649 55.2394C314.837 54.9424 316.618 54.9424 318.994 55.2394ZM588.022 55.6848C590.991 55.6848 593.069 55.9817 594.257 56.5756C595.445 57.1695 596.039 57.9118 596.039 58.8027C596.039 59.6935 595 61.3267 592.921 63.7022C590.842 66.0777 588.615 67.7109 586.24 68.6017C585.052 69.0471 583.864 69.4925 582.677 69.9379C582.825 67.5624 582.974 65.1869 583.122 62.8114C583.419 58.0603 585.052 55.6848 588.022 55.6848ZM108.315 75.2828C108.018 87.1605 109.651 94.4355 113.214 97.1079C114.996 98.4442 116.778 99.7804 118.559 101.117C119.005 100.226 119.45 99.335 119.895 98.4442C120.786 96.6625 122.271 94.8809 124.349 93.0993C126.428 91.3176 128.655 90.1299 131.031 89.536C133.406 88.9421 136.376 88.9421 139.939 89.536C143.502 90.1299 145.729 90.7237 146.62 91.3176C147.511 91.9115 148.105 95.0294 148.402 100.671C148.699 106.313 150.332 110.47 153.301 113.143C154.786 114.479 156.271 115.815 157.755 117.151C157.755 109.876 157.755 102.601 157.755 95.3263C157.755 80.7762 156.271 72.165 153.301 69.4925C151.816 68.1563 150.332 66.8201 148.847 65.4838C148.847 68.8986 148.847 72.3134 148.847 75.7283C148.847 79.1431 148.847 82.5579 148.847 85.9727C146.62 84.9334 144.393 83.8941 142.166 82.8548C137.712 80.7762 133.258 79.7369 128.804 79.7369C124.349 79.7369 121.529 80.0339 120.341 80.6278C119.747 80.9247 119.153 81.2216 118.559 81.5186C118.708 79.1431 118.856 76.7675 119.005 74.392C119.302 69.641 117.668 65.6323 114.105 62.366C112.323 60.7328 110.542 59.0996 108.76 57.4664C108.612 63.4052 108.463 69.344 108.315 75.2828ZM48.1844 74.392C51.3022 74.392 54.4201 74.392 57.538 74.392C60.6558 74.392 63.7737 74.392 66.8916 74.392C66.5946 76.7675 66.2977 79.1431 66.0008 81.5186C65.4069 86.2696 64.5161 89.239 63.3283 90.4268C62.1405 91.6146 60.3589 92.3569 57.9834 92.6538C55.6079 92.9508 53.3808 92.3569 51.3022 90.8722C49.2236 89.3875 48.1844 86.2696 48.1844 81.5186C48.1844 79.1431 48.1844 76.7675 48.1844 74.392ZM92.7254 103.344C90.9437 120.863 88.7167 130.365 86.0442 131.85C83.3718 133.335 80.9962 133.929 78.9177 133.632C76.8391 133.335 75.3544 132.741 74.4636 131.85C73.5727 130.959 72.9789 129.326 72.6819 126.95C72.5334 125.763 72.385 124.575 72.2365 123.387C73.4243 124.278 74.612 125.169 75.7998 126.06C78.1753 127.841 80.2539 128.732 82.0355 128.732C83.8172 128.732 85.3019 128.138 86.4896 126.95C87.6774 125.763 88.2713 123.833 88.2713 121.16C88.2713 118.488 86.4896 115.37 82.9263 111.806C79.3631 108.243 76.3937 106.313 74.0181 106.016C71.6426 105.719 69.2671 106.907 66.8916 109.579C64.5161 112.252 63.3283 115.221 63.3283 118.488C63.3283 121.754 63.7737 124.278 64.6645 126.06C65.5554 127.841 68.6732 130.811 74.0181 134.968C79.3631 139.125 84.2626 141.055 88.7167 140.758C93.1708 140.461 95.9917 139.867 97.1795 138.977C98.3672 138.086 99.1096 137.046 99.4065 135.859C99.7035 134.671 100.594 125.911 102.079 109.579C103.564 93.2477 102.821 83.7456 99.8519 81.0732C98.3672 79.7369 96.8825 78.4007 95.3978 77.0645C94.507 85.8242 93.6162 94.584 92.7254 103.344ZM634.344 80.6278C639.689 81.2216 642.51 82.2609 642.807 83.7456C643.104 85.2303 642.065 86.8635 639.689 88.6452C637.314 90.4268 634.493 91.4661 631.226 91.763C627.96 92.06 626.03 92.06 625.436 91.763C624.842 91.4661 624.545 90.5753 624.545 89.0906C624.545 87.6059 624.842 85.6758 625.436 83.3002C626.03 80.9247 628.999 80.0339 634.344 80.6278ZM354.627 111.361C355.22 116.409 357.002 120.418 359.971 123.387C362.941 126.357 365.91 128.584 368.88 130.068C371.849 131.553 377.639 132.295 386.251 132.295C394.862 132.295 400.504 131.701 403.176 130.514C405.849 129.326 408.521 127.544 411.194 125.169C413.866 122.793 414.163 120.269 412.084 117.597C410.006 114.924 408.373 113.44 407.185 113.143C405.997 112.846 404.661 113.588 403.176 115.37C401.692 117.151 399.019 118.933 395.159 120.715C391.299 122.496 385.36 123.239 377.342 122.942C369.325 122.645 365.019 120.715 364.426 117.151C363.832 113.588 361.902 110.47 358.635 107.798C357.002 106.462 355.369 105.125 353.736 103.789C354.033 106.313 354.33 108.837 354.627 111.361ZM78.4722 114.479C78.3238 115.518 78.1753 116.558 78.0268 117.597C77.7299 119.675 76.8391 121.012 75.3544 121.606C74.612 121.902 73.8697 122.199 73.1273 122.496C73.4243 121.606 73.7212 120.715 74.0181 119.824C74.612 118.042 75.5028 116.706 76.6906 115.815C77.2845 115.37 77.8784 114.924 78.4722 114.479Z" fill="#ffffff" fill-rule="nonzero" opacity="1" stroke="none"/>
</g>
</svg>
